<svg width="512" height="512" viewBox="0 0 512 512" fill="none" xmlns="http://www.w3.org/2000/svg">
<path d="M206.9 1.86269C205.736 3.10406 204.483 6.60249 203.677 10.6652C197.679 42.151 193.918 60.7717 191.68 69.9127C183.891 101.624 174.222 129.16 164.822 146.427C147.095 179.041 116.297 211.091 78.5163 236.483C72.6075 240.433 67.3253 243.705 66.8776 243.705C66.5195 243.705 66.3405 242.803 66.6091 241.674C66.8776 240.658 67.6834 233.887 68.4892 226.778C69.2949 219.668 70.9959 205.9 72.1598 196.307C73.3237 186.715 75.1142 172.157 76.1886 164.144C77.1734 156.019 80.2174 132.659 82.9032 112.232C85.6786 91.6932 88.9016 67.3171 90.0655 58.0632C91.3189 48.6965 92.3932 35.6056 92.4827 28.9473C92.6618 16.7592 92.6618 16.6463 90.155 13.9379C87.2006 10.778 85.0519 10.5523 82.4556 13.1479C80.7545 14.9536 80.3964 16.9849 79.6802 30.9786C78.6954 48.9221 76.4572 71.1541 71.6226 113.361C69.7426 129.499 65.7138 164.822 62.6698 191.793C59.5363 218.765 56.7609 241.335 56.4028 241.787C56.0447 242.351 52.9112 241.223 49.5987 239.417C40.9144 234.564 33.4836 232.42 25.7842 232.42C10.1167 232.42 0 240.997 0 254.539C0 259.618 0.358113 260.972 2.68585 263.793C9.22142 272.144 27.3061 271.016 46.1071 261.085C54.6123 256.571 54.7913 256.571 54.2542 259.618C53.9856 261.085 51.2997 283.881 48.3453 310.288C43.6898 351.254 38.5867 394.815 37.1542 405.197C36.259 412.194 43.0631 415.805 45.3909 409.598C46.4652 406.551 48.6139 390.075 57.8353 311.981C61.0583 284.671 64.1023 261.875 64.5499 261.31C65.6242 259.843 71.6226 266.05 90.4236 288.282C113.343 315.367 120.684 322.363 135.546 331.279C157.48 344.37 180.31 347.078 214.689 340.646C222.12 339.291 228.476 338.389 228.745 338.727C229.013 338.953 228.029 352.382 226.507 368.52C222.836 409.147 221.762 428.896 222.209 444.357C222.657 458.463 223.552 462.075 227.044 463.768C231.52 466.025 233.4 462.639 231.252 456.206C228.566 448.194 231.162 401.36 237.071 349.222L238.593 335.68L246.203 333.762C261.781 329.812 305.471 320.332 305.829 320.784C306.097 321.122 300.278 374.163 299.383 379.241C299.114 381.16 299.472 382.852 300.367 384.094C302.337 386.464 305.918 386.464 306.545 383.868C306.814 382.852 308.604 369.197 310.663 353.736C312.633 338.163 314.513 324.169 314.782 322.476C315.229 319.881 315.945 319.316 319.885 318.301C326.689 316.608 341.013 314.802 347.728 314.802C353.726 314.802 356.77 312.997 355.785 309.837C355.069 307.354 348.981 307.016 337.701 308.708C331.971 309.498 324.809 310.514 321.765 310.965L316.304 311.643L317.557 303.404C323.555 263.567 323.108 265.034 329.285 259.392C336.268 253.072 357.666 239.981 367.693 235.919C400.102 222.715 423.648 226.213 440.121 246.64C444.419 251.944 446.746 256.232 450.238 265.26C452.834 271.693 454.983 278.464 455.072 280.157C455.251 283.204 454.893 283.542 448.537 286.476C411.472 303.517 378.257 329.247 347.459 364.909C324.898 390.978 307.351 421.561 300.726 446.275C298.935 452.934 298.577 456.432 298.577 468.282C298.577 482.05 298.666 482.614 301.531 489.949C305.918 501.347 312.454 507.329 323.824 510.714C356.502 520.419 411.651 474.037 442.986 410.388C453.192 389.736 461.877 362.765 465.189 341.21C466.801 331.053 467.338 309.611 466.442 293.925L465.995 286.025L473.605 283.994C486.139 280.721 496.614 280.27 503.955 282.752C511.028 285.009 512.729 284.332 511.744 279.48C510.938 275.078 506.462 273.724 494.286 274.514C488.556 274.853 479.961 276.207 475.037 277.448C470.203 278.802 465.726 279.818 465.1 279.818C464.562 279.818 463.488 277.674 462.861 274.965C461.16 267.63 455.878 255.103 451.491 247.994C441.285 231.179 423.827 221.135 404.937 221.135C388.732 221.135 366.797 228.132 348.355 239.304C342.267 242.915 337.074 245.962 336.805 245.962C336.626 245.962 344.774 235.241 354.89 222.151C384.076 184.684 394.551 166.627 400.639 143.944C403.056 134.916 403.594 124.42 401.982 117.198C400.102 108.508 393.208 104.333 385.151 107.041C380.316 108.734 371.363 119.116 364.917 130.74C355.785 146.991 342.177 181.072 332.508 211.768C328.211 225.31 327.047 228.357 327.942 223.392C332.598 197.323 339.939 157.035 342.446 143.831C346.295 123.518 347.191 114.264 345.579 109.411C343.699 103.656 336.985 103.317 334.925 108.96C334.388 110.652 331.613 128.596 328.927 148.797C320.153 213.687 307.977 307.918 307.977 310.175C307.977 311.417 307.619 312.771 307.082 313.11C306.634 313.448 301.442 314.802 295.712 316.044C289.893 317.285 275.12 320.558 262.945 323.379C250.679 326.2 240.473 328.232 240.204 327.893C239.13 326.652 250.769 234.113 257.483 190.665C262.855 155.681 265.989 138.301 270.823 118.101C275.12 100.27 275.747 93.386 273.419 89.3233C272.256 87.1791 271.271 86.8406 268.316 87.0663C261.423 87.7434 260.617 90.6775 253.365 142.025C245.755 196.195 233.937 293.36 231.341 322.476C231.073 326.313 230.446 329.812 229.998 330.15C228.476 331.279 207.706 335.116 195.798 336.47C173.416 338.953 155.332 335.003 137.157 323.718C122.296 314.464 114.507 306.903 90.4236 278.125C83.2613 269.549 75.1142 260.295 72.3389 257.473C69.474 254.652 67.1462 252.056 67.1462 251.718C67.1462 251.266 71.0855 248.558 75.92 245.511C101.615 229.486 130.353 204.32 149.423 181.072C179.594 144.395 196.873 104.558 213.525 33.4614C219.165 8.97239 219.255 7.61816 215.942 3.32977C212.809 -0.507214 209.765 -1.07148 206.9 1.86269ZM390.254 116.069C393.387 120.019 394.372 126.565 393.119 135.029C390.612 152.295 383.271 168.884 366.797 194.502C358.471 207.367 327.674 249.687 327.136 249.009C326.42 248.219 338.686 209.285 346.475 187.279C361.873 143.718 378.347 114.377 387.479 113.925C388.016 113.925 389.359 114.941 390.254 116.069ZM36.8857 240.997C39.8401 241.9 44.9432 244.27 48.1662 246.188L53.9856 249.687L50.673 251.831C45.2118 255.329 31.9616 260.408 24.7993 261.649C13.1607 263.68 6.26698 260.633 6.26698 253.411C6.26698 247.43 9.93764 242.915 17.0104 240.207C20.8601 238.74 31.3349 239.078 36.8857 240.997ZM457.848 295.279C459.191 310.288 459.28 315.254 458.385 326.652C456.415 350.802 452.297 369.423 444.06 390.978C432.78 420.432 416.575 446.614 396.342 467.83C385.957 478.777 377.093 486.338 366.35 492.996C351.13 502.589 347.638 503.83 334.836 503.717C322.033 503.717 317.378 501.912 311.2 494.463C305.292 487.354 304.038 482.275 304.038 466.589C304.038 454.626 304.396 452.144 306.545 444.583C310.126 432.733 312.722 426.301 318.9 415.015C332.687 389.624 356.77 359.605 380.048 338.953C404.131 317.511 425.439 303.404 453.013 290.765C456.505 289.185 457.311 289.862 457.848 295.279Z" fill="#F5AF33"/>
</svg>
