<svg width="192" height="193" viewBox="0 0 192 193" fill="none" xmlns="http://www.w3.org/2000/svg">
<path d="M77.5875 1.61854C77.151 2.08405 76.681 3.39596 76.3788 4.91947C74.1294 16.7267 72.7194 23.7094 71.88 27.1373C68.9592 39.0291 65.3333 49.3551 61.8081 55.83C55.1606 68.0604 43.6115 80.0792 29.4436 89.6011C27.2278 91.0823 25.247 92.3096 25.0791 92.3096C24.9448 92.3096 24.8777 91.971 24.9784 91.5478C25.0791 91.1669 25.3813 88.6277 25.6834 85.9616C25.9856 83.2955 26.6235 78.1325 27.0599 74.5353C27.4964 70.9381 28.1678 65.4789 28.5707 62.4742C28.94 59.4272 30.0815 50.667 31.0887 43.0072C32.1295 35.305 33.3381 26.1639 33.7746 22.6937C34.2446 19.1812 34.6475 14.2721 34.681 11.7753C34.7482 7.20473 34.7482 7.16241 33.8081 6.14674C32.7002 4.96179 31.8945 4.87715 30.9208 5.8505C30.2829 6.52762 30.1487 7.28937 29.8801 12.537C29.5108 19.2658 28.6714 27.6028 26.8585 43.4304C26.1535 49.4821 24.6427 62.7281 23.5012 72.8425C22.3261 82.9569 21.2854 91.4208 21.1511 91.5901C21.0168 91.8017 19.8417 91.3785 18.5995 90.7014C15.3429 88.8817 12.5563 88.0776 9.66906 88.0776C3.79376 88.0776 0 91.2939 0 96.3722C0 98.2766 0.134292 98.7845 1.00719 99.8425C3.45803 102.974 10.2398 102.551 17.2902 98.8268C20.4796 97.134 20.5467 97.134 20.3453 98.2766C20.2446 98.8268 19.2374 107.375 18.1295 117.278C16.3837 132.64 14.47 148.976 13.9328 152.869C13.5971 155.493 16.1487 156.847 17.0216 154.519C17.4244 153.377 18.2302 147.198 21.6882 117.913C22.8969 107.672 24.0383 99.123 24.2062 98.9114C24.6091 98.3613 26.8585 100.689 33.9088 109.026C42.5036 119.183 45.2566 121.806 50.8297 125.15C59.0551 130.059 67.6163 131.074 80.5083 128.662C83.2949 128.154 85.6786 127.816 85.7793 127.943C85.88 128.027 85.5107 133.063 84.94 139.115C83.5635 154.35 83.1606 161.756 83.3285 167.554C83.4963 172.844 83.8321 174.198 85.1414 174.833C86.8201 175.679 87.5251 174.41 86.7194 171.997C85.7122 168.993 86.6858 151.43 88.9016 131.878L89.4723 126.8L92.3261 126.081C98.1678 124.599 114.551 121.045 114.686 121.214C114.786 121.341 112.604 141.231 112.268 143.135C112.168 143.855 112.302 144.49 112.638 144.955C113.376 145.844 114.719 145.844 114.954 144.871C115.055 144.49 115.727 139.369 116.499 133.571C117.237 127.731 117.942 122.483 118.043 121.849C118.211 120.875 118.48 120.664 119.957 120.283C122.508 119.648 127.88 118.971 130.398 118.971C132.647 118.971 133.789 118.294 133.42 117.109C133.151 116.178 130.868 116.051 126.638 116.686C124.489 116.982 121.803 117.363 120.662 117.532L118.614 117.786L119.084 114.697C121.333 99.7578 121.165 100.308 123.482 98.192C126.101 95.8221 134.125 90.913 137.885 89.3895C150.038 84.4381 158.868 85.75 165.045 93.4099C166.657 95.3989 167.53 97.007 168.839 100.393C169.813 102.805 170.619 105.344 170.652 105.979C170.719 107.121 170.585 107.248 168.201 108.349C154.302 114.739 141.846 124.388 130.297 137.761C121.837 147.537 115.256 159.005 112.772 168.273C112.101 170.77 111.966 172.082 111.966 176.526C111.966 181.689 112 181.9 113.074 184.651C114.719 188.925 117.17 191.168 121.434 192.438C133.688 196.077 154.369 178.684 166.12 154.816C169.947 147.071 173.204 136.957 174.446 128.874C175.05 125.065 175.252 117.024 174.916 111.142L174.748 108.179L177.602 107.418C182.302 106.19 186.23 106.021 188.983 106.952C191.635 107.799 192.273 107.545 191.904 105.725C191.602 104.074 189.923 103.567 185.357 103.863C183.208 103.99 179.985 104.498 178.139 104.963C176.326 105.471 174.647 105.852 174.412 105.852C174.211 105.852 173.808 105.048 173.573 104.032C172.935 101.281 170.954 96.5838 169.309 93.9177C165.482 87.6121 158.935 83.8456 151.851 83.8456C145.774 83.8456 137.549 86.4694 130.633 90.6591C128.35 92.0133 126.403 93.1559 126.302 93.1559C126.235 93.1559 129.29 89.1356 133.084 84.2265C144.029 70.1764 147.957 63.4052 150.24 54.899C151.146 51.5134 151.348 47.5777 150.743 44.8692C150.038 41.6106 147.453 40.0448 144.432 41.0605C142.619 41.6953 139.261 45.5887 136.844 49.9476C133.42 56.0416 128.316 68.8222 124.691 80.3331C123.079 85.4115 122.643 86.5541 122.978 84.692C124.724 74.9162 127.477 59.8081 128.417 54.8567C129.861 47.2391 130.197 43.7689 129.592 41.9492C128.887 39.7909 126.369 39.6639 125.597 41.7799C125.396 42.4147 124.355 49.1435 123.348 56.7187C120.057 81.0525 115.492 116.389 115.492 117.236C115.492 117.701 115.357 118.209 115.156 118.336C114.988 118.463 113.041 118.971 110.892 119.436C108.71 119.902 103.17 121.129 98.6042 122.187C94.0047 123.245 90.1774 124.007 90.0767 123.88C89.6738 123.414 94.0383 88.7124 96.5563 72.4193C98.5707 59.3002 99.7457 52.783 101.559 45.2078C103.17 38.5213 103.405 35.9398 102.532 34.4163C102.096 33.6122 101.727 33.4852 100.619 33.5699C98.0335 33.8238 97.7313 34.9241 95.0119 54.1796C92.1582 74.493 87.7265 110.93 86.7529 121.849C86.6522 123.288 86.4172 124.599 86.2493 124.726C85.6786 125.15 77.8896 126.588 73.4244 127.096C65.0311 128.027 58.2494 126.546 51.434 122.314C45.8609 118.844 42.94 116.009 33.9088 105.217C31.223 102.001 28.1678 98.5305 27.1271 97.4726C26.0527 96.4146 25.1798 95.4412 25.1798 95.3142C25.1798 95.145 26.6571 94.1293 28.47 92.9867C38.1055 86.9773 48.8825 77.54 56.0335 68.8222C67.3477 55.0683 73.8273 40.1294 80.0719 13.468C82.187 4.28468 82.2206 3.77684 80.9783 2.16869C79.8033 0.729826 78.6618 0.518228 77.5875 1.61854ZM146.345 44.446C147.52 45.9272 147.89 48.3818 147.42 51.5557C146.479 58.0306 143.726 64.2516 137.549 73.8582C134.427 78.6826 122.878 94.5525 122.676 94.2986C122.408 94.0023 127.007 79.4021 129.928 71.1497C135.703 54.8143 141.88 43.8112 145.304 43.642C145.506 43.642 146.009 44.0228 146.345 44.446ZM13.8321 91.2939C14.94 91.6324 16.8537 92.5212 18.0623 93.2406L20.2446 94.5525L19.0024 95.3566C16.9544 96.6685 11.9856 98.5729 9.29975 99.0384C4.93525 99.8001 2.35012 98.6575 2.35012 95.949C2.35012 93.7061 3.72662 92.0133 6.37889 90.9976C7.82254 90.4475 11.7506 90.5744 13.8321 91.2939ZM171.693 111.65C172.196 117.278 172.23 119.14 171.894 123.414C171.156 132.471 169.611 139.454 166.523 147.537C162.292 158.582 156.216 168.4 148.628 176.356C144.734 180.461 141.41 183.297 137.381 185.794C131.674 189.391 130.364 189.856 125.563 189.814C120.762 189.814 119.017 189.137 116.7 186.344C114.484 183.678 114.014 181.773 114.014 175.891C114.014 171.405 114.149 170.474 114.954 167.639C116.297 163.195 117.271 160.783 119.587 156.551C124.758 147.029 133.789 135.772 142.518 128.027C151.549 119.987 159.539 114.697 169.88 109.957C171.189 109.364 171.491 109.618 171.693 111.65Z" fill="#F5AF33"/>
</svg>
