<svg width="763" height="606" viewBox="0 0 763 606" fill="none" xmlns="http://www.w3.org/2000/svg">
<path d="M308.467 2.59997C306.733 4.06664 304.867 8.19997 303.667 13C294.733 50.2 289.133 72.2 285.8 83C274.2 120.467 259.8 153 245.8 173.4C219.4 211.933 173.533 249.8 117.267 279.8C108.467 284.467 100.6 288.333 99.9333 288.333C99.4 288.333 99.1333 287.267 99.5333 285.933C99.9333 284.733 101.133 276.733 102.333 268.333C103.533 259.933 106.067 243.667 107.8 232.333C109.533 221 112.2 203.8 113.8 194.333C115.267 184.733 119.8 157.133 123.8 133C127.933 108.733 132.733 79.9333 134.467 69C136.333 57.9333 137.933 42.4666 138.067 34.6C138.333 20.2 138.333 20.0666 134.6 16.8666C130.2 13.1333 127 12.8666 123.133 15.9333C120.6 18.0666 120.067 20.4666 119 37C117.533 58.2 114.2 84.4667 107 134.333C104.2 153.4 98.2 195.133 93.6666 227C89 258.867 84.8666 285.533 84.3333 286.067C83.8 286.733 79.1333 285.4 74.2 283.267C61.2666 277.533 50.2 275 38.7333 275C15.4 275 0.333313 285.133 0.333313 301.133C0.333313 307.133 0.866646 308.733 4.33331 312.067C14.0666 321.933 41 320.6 69 308.867C81.6666 303.533 81.9333 303.533 81.1333 307.133C80.7333 308.867 76.7333 335.8 72.3333 367C65.4 415.4 57.8 466.867 55.6666 479.133C54.3333 487.4 64.4666 491.667 67.9333 484.333C69.5333 480.733 72.7333 461.267 86.4666 369C91.2666 336.733 95.8 309.8 96.4666 309.133C98.0666 307.4 107 314.733 135 341C169.133 373 180.067 381.267 202.2 391.8C234.867 407.267 268.867 410.467 320.067 402.867C331.133 401.267 340.6 400.2 341 400.6C341.4 400.867 339.933 416.733 337.667 435.8C332.2 483.8 330.6 507.133 331.267 525.4C331.933 542.067 333.267 546.333 338.467 548.333C345.133 551 347.933 547 344.733 539.4C340.733 529.933 344.6 474.6 353.4 413L355.667 397L367 394.733C390.2 390.067 455.267 378.867 455.8 379.4C456.2 379.8 447.533 442.467 446.2 448.467C445.8 450.733 446.333 452.733 447.667 454.2C450.6 457 455.933 457 456.867 453.933C457.267 452.733 459.933 436.6 463 418.333C465.933 399.933 468.733 383.4 469.133 381.4C469.8 378.333 470.867 377.667 476.733 376.467C486.867 374.467 508.2 372.333 518.2 372.333C527.133 372.333 531.667 370.2 530.2 366.467C529.133 363.533 520.067 363.133 503.267 365.133C494.733 366.067 484.067 367.267 479.533 367.8L471.4 368.6L473.267 358.867C482.2 311.8 481.533 313.533 490.733 306.867C501.133 299.4 533 283.933 547.933 279.133C596.2 263.533 631.267 267.667 655.8 291.8C662.2 298.067 665.667 303.133 670.867 313.8C674.733 321.4 677.933 329.4 678.067 331.4C678.333 335 677.8 335.4 668.333 338.867C613.133 359 563.667 389.4 517.8 431.533C484.2 462.333 458.067 498.467 448.2 527.667C445.533 535.533 445 539.667 445 553.667C445 569.933 445.133 570.6 449.4 579.267C455.933 592.733 465.667 599.8 482.6 603.8C531.267 615.267 613.4 560.467 660.067 485.267C675.267 460.867 688.2 429 693.133 403.533C695.533 391.533 696.333 366.2 695 347.667L694.333 338.333L705.667 335.933C724.333 332.067 739.933 331.533 750.867 334.467C761.4 337.133 763.933 336.333 762.467 330.6C761.267 325.4 754.6 323.8 736.467 324.733C727.933 325.133 715.133 326.733 707.8 328.2C700.6 329.8 693.933 331 693 331C692.2 331 690.6 328.467 689.667 325.267C687.133 316.6 679.267 301.8 672.733 293.4C657.533 273.533 631.533 261.667 603.4 261.667C579.267 261.667 546.6 269.933 519.133 283.133C510.067 287.4 502.333 291 501.933 291C501.667 291 513.8 278.333 528.867 262.867C572.333 218.6 587.933 197.267 597 170.467C600.6 159.8 601.4 147.4 599 138.867C596.2 128.6 585.933 123.667 573.933 126.867C566.733 128.867 553.4 141.133 543.8 154.867C530.2 174.067 509.933 214.333 495.533 250.6C489.133 266.6 487.4 270.2 488.733 264.333C495.667 233.533 506.6 185.933 510.333 170.333C516.067 146.333 517.4 135.4 515 129.667C512.2 122.867 502.2 122.467 499.133 129.133C498.333 131.133 494.2 152.333 490.2 176.2C477.133 252.867 459 364.2 459 366.867C459 368.333 458.467 369.933 457.667 370.333C457 370.733 449.267 372.333 440.733 373.8C432.067 375.267 410.067 379.133 391.933 382.467C373.667 385.8 358.467 388.2 358.067 387.8C356.467 386.333 373.8 277 383.8 225.667C391.8 184.333 396.467 163.8 403.667 139.933C410.067 118.867 411 110.733 407.533 105.933C405.8 103.4 404.333 103 399.933 103.267C389.667 104.067 388.467 107.533 377.667 168.2C366.333 232.2 348.733 347 344.867 381.4C344.467 385.933 343.533 390.067 342.867 390.467C340.6 391.8 309.667 396.333 291.933 397.933C258.6 400.867 231.667 396.2 204.6 382.867C182.467 371.933 170.867 363 135 329C124.333 318.867 112.2 307.933 108.067 304.6C103.8 301.267 100.333 298.2 100.333 297.8C100.333 297.267 106.2 294.067 113.4 290.467C151.667 271.533 194.467 241.8 222.867 214.333C267.8 171 293.533 123.933 318.333 39.9333C326.733 11 326.867 9.39997 321.933 4.33331C317.267 -0.200028 312.733 -0.866694 308.467 2.59997ZM581.533 137.533C586.2 142.2 587.667 149.933 585.8 159.933C582.067 180.333 571.133 199.933 546.6 230.2C534.2 245.4 488.333 295.4 487.533 294.6C486.467 293.667 504.733 247.667 516.333 221.667C539.267 170.2 563.8 135.533 577.4 135C578.2 135 580.2 136.2 581.533 137.533ZM55.2666 285.133C59.6666 286.2 67.2666 289 72.0666 291.267L80.7333 295.4L75.8 297.933C67.6666 302.067 47.9333 308.067 37.2666 309.533C19.9333 311.933 9.66665 308.333 9.66665 299.8C9.66665 292.733 15.1333 287.4 25.6666 284.2C31.4 282.467 47 282.867 55.2666 285.133ZM682.2 349.267C684.2 367 684.333 372.867 683 386.333C680.067 414.867 673.933 436.867 661.667 462.333C644.867 497.133 620.733 528.067 590.6 553.133C575.133 566.067 561.933 575 545.933 582.867C523.267 594.2 518.067 595.667 499 595.533C479.933 595.533 473 593.4 463.8 584.6C455 576.2 453.133 570.2 453.133 551.667C453.133 537.533 453.667 534.6 456.867 525.667C462.2 511.667 466.067 504.067 475.267 490.733C495.8 460.733 531.667 425.267 566.333 400.867C602.2 375.533 633.933 358.867 675 343.933C680.2 342.067 681.4 342.867 682.2 349.267Z" fill="#B63BB6"/>
</svg>
